<svg xmlns="http://www.w3.org/2000/svg" width="32" height="32" viewBox="0 0 32 32"><circle cx="16" cy="16" r="16" fill="#08c"/><path d="M153.46,169.176h8.974a2.212,2.212,0,0,1,.966.2,1.842,1.842,0,0,1,.756.693q.017.025.032.052a2.013,2.013,0,0,1,.263,1,2.143,2.143,0,0,1-.263,1.036l-.005.009-5.67,9.739a.7.7,0,0,1-1.2,0l-5.565-9.718,0-.008a2.154,2.154,0,0,1-.359-.953,1.894,1.894,0,0,1,1.084-1.872A2.284,2.284,0,0,1,153.46,169.176Zm3.757,1.391H153.46a1,1,0,0,0-.408.046.5.5,0,0,0-.22.2.508.508,0,0,0-.066.3c0,.059.029.127.171.361l.009.015,4.271,7.457Zm1.391,0v8.414l4.369-7.506a.76.76,0,0,0,.083-.351.618.618,0,0,0-.072-.3,1.119,1.119,0,0,0-.111-.142.2.2,0,0,0-.065-.047.832.832,0,0,0-.378-.071Z" transform="translate(-141.912 -158.602)" fill="#fff" fill-rule="evenodd"/></svg>